<?xml version="1.0" encoding="UTF-8" standalone="no"?>
<!-- Created with Inkscape (http://www.inkscape.org/) -->

<svg
   xmlns:dc="http://purl.org/dc/elements/1.1/"
   xmlns:cc="http://creativecommons.org/ns#"
   xmlns:rdf="http://www.w3.org/1999/02/22-rdf-syntax-ns#"
   xmlns:svg="http://www.w3.org/2000/svg"
   xmlns="http://www.w3.org/2000/svg"
   xmlns:xlink="http://www.w3.org/1999/xlink"
   xmlns:sodipodi="http://sodipodi.sourceforge.net/DTD/sodipodi-0.dtd"
   xmlns:inkscape="http://www.inkscape.org/namespaces/inkscape"
   width="1052.3622"
   height="744.09448"
   id="svg2"
   sodipodi:version="0.32"
   inkscape:version="0.47pre4 r22446"
   sodipodi:docname="logo_vekomam.svg"
   inkscape:output_extension="org.inkscape.output.svg.inkscape"
   version="1.1">
  <sodipodi:namedview
     id="base"
     pagecolor="#ffffff"
     bordercolor="#666666"
     borderopacity="1.0"
     inkscape:pageopacity="0.0"
     inkscape:pageshadow="2"
     inkscape:zoom="0.29059109"
     inkscape:cx="852.71304"
     inkscape:cy="597.08291"
     inkscape:document-units="px"
     inkscape:current-layer="g3352"
     showgrid="false"
     inkscape:window-width="1024"
     inkscape:window-height="687"
     inkscape:window-x="0"
     inkscape:window-y="33"
     inkscape:window-maximized="1" />
  <defs
     id="defs4">
    <linearGradient
       inkscape:collect="always"
       id="linearGradient3353">
      <stop
         style="stop-color:#000000;stop-opacity:1"
         offset="0"
         id="stop3355" />
      <stop
         style="stop-color:#0b1728;stop-opacity:0;"
         offset="1"
         id="stop3357" />
    </linearGradient>
    <inkscape:perspective
       id="perspective10"
       inkscape:persp3d-origin="395.84034 : 331.45549 : 1"
       inkscape:vp_z="767.88758 : 506.84919 : 1"
       inkscape:vp_y="6.1230318e-14 : 1000 : 0"
       inkscape:vp_x="23.793103 : 506.84919 : 1"
       sodipodi:type="inkscape:persp3d" />
    <inkscape:perspective
       sodipodi:type="inkscape:persp3d"
       inkscape:vp_x="337.81653 : 385.88569 : 1"
       inkscape:vp_y="6.1230318e-14 : 1000 : 0"
       inkscape:vp_z="1081.911 : 385.88569 : 1"
       inkscape:persp3d-origin="709.86377 : 210.49199 : 1"
       id="perspective2412" />
    <inkscape:perspective
       sodipodi:type="inkscape:persp3d"
       inkscape:vp_x="0 : 526.18109 : 1"
       inkscape:vp_y="0 : 1000 : 0"
       inkscape:vp_z="744.09448 : 526.18109 : 1"
       inkscape:persp3d-origin="372.04724 : 350.78739 : 1"
       id="perspective2513" />
    <inkscape:perspective
       sodipodi:type="inkscape:persp3d"
       inkscape:vp_x="0 : 526.18109 : 1"
       inkscape:vp_y="0 : 1000 : 0"
       inkscape:vp_z="744.09448 : 526.18109 : 1"
       inkscape:persp3d-origin="372.04724 : 350.78739 : 1"
       id="perspective2565" />
    <inkscape:perspective
       sodipodi:type="inkscape:persp3d"
       inkscape:vp_x="0 : 526.18109 : 1"
       inkscape:vp_y="0 : 1000 : 0"
       inkscape:vp_z="744.09448 : 526.18109 : 1"
       inkscape:persp3d-origin="372.04724 : 350.78739 : 1"
       id="perspective2578" />
    <inkscape:perspective
       sodipodi:type="inkscape:persp3d"
       inkscape:vp_x="0 : 526.18109 : 1"
       inkscape:vp_y="0 : 1000 : 0"
       inkscape:vp_z="744.09448 : 526.18109 : 1"
       inkscape:persp3d-origin="372.04724 : 350.78739 : 1"
       id="perspective2591" />
    <linearGradient
       inkscape:collect="always"
       xlink:href="#linearGradient3353"
       id="linearGradient3359"
       x1="367.72632"
       y1="202.41605"
       x2="367.72629"
       y2="299.39883"
       gradientUnits="userSpaceOnUse" />
    <linearGradient
       inkscape:collect="always"
       xlink:href="#linearGradient3353"
       id="linearGradient3363"
       gradientUnits="userSpaceOnUse"
       x1="367.72632"
       y1="202.41605"
       x2="367.72629"
       y2="299.39883"
       gradientTransform="translate(4.9648438e-5,-670.37375)" />
    <linearGradient
       inkscape:collect="always"
       xlink:href="#linearGradient3353"
       id="linearGradient3441"
       gradientUnits="userSpaceOnUse"
       x1="367.72632"
       y1="202.41605"
       x2="367.72629"
       y2="299.39883" />
    <linearGradient
       inkscape:collect="always"
       xlink:href="#linearGradient3353"
       id="linearGradient3443"
       gradientUnits="userSpaceOnUse"
       gradientTransform="translate(4.9648438e-5,-670.37375)"
       x1="367.72632"
       y1="202.41605"
       x2="367.72629"
       y2="299.39883" />
    <linearGradient
       inkscape:collect="always"
       xlink:href="#linearGradient3353"
       id="linearGradient2485"
       gradientUnits="userSpaceOnUse"
       gradientTransform="matrix(0.5264,0,0,0.5263157,44.722542,-886.87901)"
       x1="367.72632"
       y1="202.41605"
       x2="367.72629"
       y2="299.39883" />
    <linearGradient
       inkscape:collect="always"
       xlink:href="#linearGradient3353"
       id="linearGradient2487"
       gradientUnits="userSpaceOnUse"
       gradientTransform="matrix(0.5264,0,0,0.5263157,44.722516,534.05078)"
       x1="367.72632"
       y1="202.41605"
       x2="367.72629"
       y2="299.39883" />
    <linearGradient
       inkscape:collect="always"
       xlink:href="#linearGradient3353"
       id="linearGradient2682"
       gradientUnits="userSpaceOnUse"
       x1="367.72632"
       y1="202.41605"
       x2="367.72629"
       y2="299.39883" />
    <linearGradient
       inkscape:collect="always"
       xlink:href="#linearGradient3353"
       id="linearGradient2684"
       gradientUnits="userSpaceOnUse"
       gradientTransform="translate(4.9648438e-5,-670.37375)"
       x1="367.72632"
       y1="202.41605"
       x2="367.72629"
       y2="299.39883" />
    <linearGradient
       inkscape:collect="always"
       xlink:href="#linearGradient3353"
       id="linearGradient3504"
       gradientUnits="userSpaceOnUse"
       gradientTransform="matrix(0.528,0,0,0.5263157,171.20964,-757.42827)"
       x1="367.72632"
       y1="202.41605"
       x2="367.72629"
       y2="299.39883" />
    <linearGradient
       inkscape:collect="always"
       xlink:href="#linearGradient3353"
       id="linearGradient3506"
       gradientUnits="userSpaceOnUse"
       gradientTransform="matrix(0.528,0,0,0.5263157,171.20961,404.60004)"
       x1="367.72632"
       y1="202.41605"
       x2="367.72629"
       y2="299.39883" />
    <linearGradient
       inkscape:collect="always"
       xlink:href="#linearGradient3353"
       id="linearGradient3970"
       gradientUnits="userSpaceOnUse"
       gradientTransform="matrix(0.528,0,0,0.5263157,171.20964,-757.42827)"
       x1="367.72632"
       y1="202.41605"
       x2="367.72629"
       y2="299.39883" />
    <linearGradient
       inkscape:collect="always"
       xlink:href="#linearGradient3353"
       id="linearGradient3972"
       gradientUnits="userSpaceOnUse"
       gradientTransform="matrix(0.528,0,0,0.5263157,171.20961,404.60004)"
       x1="367.72632"
       y1="202.41605"
       x2="367.72629"
       y2="299.39883" />
    <linearGradient
       inkscape:collect="always"
       xlink:href="#linearGradient3353"
       id="linearGradient2455"
       gradientUnits="userSpaceOnUse"
       gradientTransform="matrix(0.528,0,0,0.5263157,171.20964,-757.42827)"
       x1="367.72632"
       y1="202.41605"
       x2="367.72629"
       y2="299.39883" />
    <linearGradient
       inkscape:collect="always"
       xlink:href="#linearGradient3353"
       id="linearGradient2457"
       gradientUnits="userSpaceOnUse"
       gradientTransform="matrix(0.528,0,0,0.5263157,171.20961,404.60004)"
       x1="367.72632"
       y1="202.41605"
       x2="367.72629"
       y2="299.39883" />
    <linearGradient
       inkscape:collect="always"
       xlink:href="#linearGradient3353"
       id="linearGradient2538"
       gradientUnits="userSpaceOnUse"
       gradientTransform="matrix(0.528,0,0,0.5263157,171.20964,-757.42827)"
       x1="367.72632"
       y1="202.41605"
       x2="367.72629"
       y2="299.39883" />
    <linearGradient
       inkscape:collect="always"
       xlink:href="#linearGradient3353"
       id="linearGradient2540"
       gradientUnits="userSpaceOnUse"
       gradientTransform="matrix(0.528,0,0,0.5263157,171.20961,404.60004)"
       x1="367.72632"
       y1="202.41605"
       x2="367.72629"
       y2="299.39883" />
    <linearGradient
       inkscape:collect="always"
       xlink:href="#linearGradient3353"
       id="linearGradient3360"
       gradientUnits="userSpaceOnUse"
       gradientTransform="matrix(0.528,0,0,0.5263157,171.20964,-757.42827)"
       x1="367.72632"
       y1="202.41605"
       x2="367.72629"
       y2="299.39883" />
    <linearGradient
       inkscape:collect="always"
       xlink:href="#linearGradient3353"
       id="linearGradient3362"
       gradientUnits="userSpaceOnUse"
       gradientTransform="matrix(0.528,0,0,0.5263157,171.20961,404.60004)"
       x1="367.72632"
       y1="202.41605"
       x2="367.72629"
       y2="299.39883" />
  </defs>
  <metadata
     id="metadata7">
    <rdf:RDF>
      <cc:Work
         rdf:about="">
        <dc:format>image/svg+xml</dc:format>
        <dc:type
           rdf:resource="http://purl.org/dc/dcmitype/StillImage" />
        <dc:title></dc:title>
      </cc:Work>
    </rdf:RDF>
  </metadata>
  <g
     id="layer1"
     inkscape:groupmode="layer"
     inkscape:label="Camada 1"
     transform="translate(0,-308.2677)">
    <g
       id="g3352"
       transform="translate(21.841488,-73.714988)">
      <g
         id="g3019"
         transform="matrix(1.3365214,0,0,1.3365214,53.610602,13.590548)">
        <rect
           rx="82.955673"
           ry="81.29657"
           style="fill:#0b1728;fill-opacity:1;fill-rule:evenodd;stroke:#000000;stroke-width:0;stroke-linecap:butt;stroke-linejoin:miter;stroke-miterlimit:4;stroke-opacity:1;stroke-dasharray:none"
           id="rect2455"
           width="693.26532"
           height="541.97705"
           x="-9.3922672"
           y="283.01636" />
        <path
           style="fill:#3771c8;fill-opacity:1;stroke:#000000;stroke-width:0;stroke-miterlimit:4;stroke-opacity:1;stroke-dasharray:none"
           d="m 594.50063,599.88162 10.17667,1.92092 10.20194,4.13418 0,7.52265 -10.20194,4.13418 -10.17667,1.92092 -0.9306,10.04554 9.65051,3.75817 9.26819,5.93819 -1.38248,7.39472 -10.78811,2.18954 -10.35679,0.0166 -2.76027,9.70432 8.79419,5.46584 8.01998,7.54006 -2.71912,7.01556 -11.00617,0.16923 -10.18297,-1.88304 -4.49825,9.03128 7.64083,6.98873 6.49687,8.88445 -3.96103,6.39632 -10.84971,-1.85461 -9.66318,-3.72344 -6.08137,8.0519 6.22516,8.27306 4.75413,9.92697 -5.06859,5.56069 -10.32516,-3.81663 -8.81476,-5.43426 -7.45589,6.79595 4.59774,9.27622 2.8487,10.63154 -6.00395,4.53386 -9.44826,-5.64757 -7.6645,-6.96186 -8.57933,5.31105 2.81551,9.96336 0.84532,10.97443 -6.7355,3.35218 -8.24906,-7.28732 -6.25519,-8.25094 -9.40877,3.64446 0.9369,10.3109 -1.18494,10.94279 -7.23794,2.05841 -6.76863,-8.67905 -4.63252,-9.26039 -9.91757,1.853 -0.97484,10.30935 -3.17577,10.53681 -7.49228,0.69506 -5.05908,-9.77539 -2.8519,-9.95385 -10.08974,0 -2.8519,9.95385 -5.05908,9.77539 -7.49228,-0.69506 -3.17577,-10.53681 -0.97484,-10.30935 -9.91757,-1.853 -4.63252,9.26039 -6.76863,8.67905 -7.23794,-2.05841 -1.18494,-10.94279 0.9369,-10.3109 -9.40877,-3.64446 -6.25519,8.25094 -8.24906,7.28732 -6.7355,-3.35218 0.84532,-10.97443 2.81551,-9.96336 -8.57933,-5.31105 -7.6645,6.96186 -9.44826,5.64757 -6.00395,-4.53386 2.8487,-10.63154 4.59774,-9.27622 -7.45589,-6.79595 -8.81476,5.43426 -10.32516,3.81663 -5.0686,-5.56069 4.75414,-9.92697 6.22516,-8.27306 -6.08137,-8.0519 -9.66318,3.72344 -10.84971,1.85461 -3.96103,-6.39632 6.49687,-8.88445 7.64083,-6.98873 -4.49825,-9.03128 -10.18297,1.88304 -11.00617,-0.16923 -2.71912,-7.01556 8.01998,-7.54006 8.79419,-5.46584 -2.76027,-9.70432 -10.35679,-0.0166 -10.78811,-2.18954 -1.38248,-7.39472 9.26819,-5.93819 9.65051,-3.75817 -0.9306,-10.04554 -10.17667,-1.92092 -10.20194,-4.13418 0,-7.52265 10.20194,-4.13418 10.17667,-1.92092 0.9306,-10.04554 -9.65051,-3.75817 -9.26819,-5.93819 1.38248,-7.39472 10.78811,-2.18954 10.35679,-0.0166 2.76027,-9.70432 -8.79419,-5.46584 -8.01998,-7.54006 2.71912,-7.01556 11.00617,-0.16923 10.18297,1.88304 4.49825,-9.03128 -7.64083,-6.98873 -6.49687,-8.88445 3.96103,-6.39632 10.84971,1.85461 9.66318,3.72344 6.08137,-8.0519 -6.22516,-8.27306 -4.75414,-9.92697 5.0686,-5.56069 10.32516,3.81663 8.81476,5.43426 7.45589,-6.79595 -4.59774,-9.27622 -2.8487,-10.63154 6.00395,-4.53386 9.44826,5.64757 7.6645,6.96186 8.57933,-5.31105 -2.81551,-9.96336 -0.84532,-10.97443 6.7355,-3.35218 8.24906,7.28732 6.25519,8.25094 9.40877,-3.64446 -0.9369,-10.3109 1.18494,-10.94279 7.23794,-2.05841 6.76863,8.67905 4.63252,9.26039 9.91757,-1.853 0.97484,-10.30935 3.17577,-10.53681 7.49228,-0.69506 5.05908,9.77539 2.8519,9.95385 10.08974,0 2.8519,-9.95385 5.05908,-9.77539 7.49228,0.69506 3.17577,10.53681 0.97484,10.30935 9.91757,1.853 4.63252,-9.26039 6.76863,-8.67905 7.23794,2.05841 1.18494,10.94279 -0.9369,10.3109 9.40877,3.64446 6.25519,-8.25094 8.24906,-7.28732 6.7355,3.35218 -0.84532,10.97443 -2.81551,9.96336 8.57933,5.31105 7.6645,-6.96186 9.44826,-5.64757 6.00395,4.53386 -2.8487,10.63154 -4.59774,9.27622 7.45589,6.79595 8.81476,-5.43426 10.32516,-3.81663 5.06859,5.56069 -4.75413,9.92697 -6.22516,8.27306 6.08137,8.0519 9.66318,-3.72344 10.84971,-1.85461 3.96103,6.39632 -6.49687,8.88445 -7.64083,6.98873 4.49825,9.03128 10.18297,-1.88304 11.00617,0.16923 2.71912,7.01556 -8.01998,7.54006 -8.79419,5.46584 2.76027,9.70432 10.35679,0.0166 10.78811,2.18954 1.38248,7.39472 -9.26819,5.93819 -9.65051,3.75817 0.9306,10.04554 z"
           id="path2465" />
        <path
           transform="matrix(3.5610433,0,0,3.560473,-379.6248,-664.26654)"
           d="m 242.74795,357.80768 c 0,7.90123 -6.40521,14.30644 -14.30644,14.30644 -7.90122,0 -14.30644,-6.40521 -14.30644,-14.30644 0,-7.90123 6.40522,-14.30644 14.30644,-14.30644 7.90123,0 14.30644,6.40521 14.30644,14.30644 z"
           sodipodi:ry="14.306438"
           sodipodi:rx="14.306438"
           sodipodi:cy="357.80768"
           sodipodi:cx="228.44151"
           id="path2467"
           style="fill:#0b1728;fill-opacity:1;stroke:#000000;stroke-width:0;stroke-miterlimit:4;stroke-opacity:1;stroke-dasharray:none"
           sodipodi:type="arc" />
        <path
           id="path2473"
           d="m 293.00641,433.92387 2.64302,-0.21237 7.04454,1.15408 9.79159,4.09652 0,6.8611 -9.79159,4.09652 -7.04454,1.15408 -2.64302,-0.21237 -1.39084,10.57043 2.60686,0.47783 6.5051,2.9379 8.39927,6.49051 -1.77664,6.6291 -10.51933,1.42224 -7.10333,-0.70811 -2.49686,-0.88889 -4.08058,9.84877 2.39437,1.13749 5.52413,4.51987 6.43128,8.44306 -3.4311,5.94361 -10.52841,-1.34842 -6.67843,-2.52207 -2.1819,-1.5051 -6.49155,8.45811 2.01919,1.71757 4.16493,5.79595 4.02789,9.82012 -4.85363,4.8528 -9.82168,-4.02717 -5.79688,-4.16432 -1.71785,-2.01886 -8.45949,6.49051 1.50537,2.18162 2.52246,6.67732 1.34864,10.52669 -5.94455,3.43061 -8.44444,-6.43023 -4.52059,-5.5233 -1.13765,-2.39399 -9.85033,4.07993 0.88901,2.49647 0.70828,7.10216 -1.42253,10.51768 -6.63015,1.7763 -6.49155,-8.39788 -2.93835,-6.50406 -0.47782,-2.60641 -10.5721,1.39056 0.21237,2.64263 -1.15425,7.04344 -4.09718,9.78999 -6.8622,0 -4.09718,-9.78999 -1.15425,-7.04344 0.21237,-2.64263 -10.57209,-1.39056 -0.47783,2.60641 -2.93834,6.50406 -6.49156,8.39788 -6.63015,-1.7763 -1.42252,-10.51768 0.70827,-7.10216 0.88901,-2.49647 -9.85032,-4.07993 -1.13766,2.39399 -4.52058,5.5233 -8.44445,6.43023 -5.94455,-3.43061 1.34864,-10.52669 2.52246,-6.67732 1.50537,-2.18162 -8.45949,-6.49051 -1.71784,2.01886 -5.79689,4.16432 -9.82168,4.02717 -4.853623,-4.8528 4.027883,-9.82012 4.16493,-5.79595 2.0192,-1.71757 -6.49156,-8.45811 -2.181902,1.5051 -6.67843,2.52207 -10.528402,1.34842 -3.431102,-5.94361 6.431277,-8.44306 5.524129,-4.51987 2.394377,-1.13749 -4.08059,-9.84877 -2.496855,0.88889 -7.103328,0.70811 -10.519333,-1.42224 -1.776634,-6.6291 8.399262,-6.49051 6.505108,-2.9379 2.606854,-0.47783 -1.390835,-10.57043 -2.643023,0.21237 -7.044541,-1.15408 -9.79159,-4.09652 0,-6.8611 9.79159,-4.09652 7.044541,-1.15408 2.643023,0.21237 1.390835,-10.57043 -2.606854,-0.47783 -6.505108,-2.9379 -8.399262,-6.49051 1.776634,-6.6291 10.519333,-1.42224 7.103328,0.70811 2.496855,0.88889 4.08059,-9.84877 -2.394377,-1.13749 -5.524129,-4.51987 -6.431277,-8.44306 3.431102,-5.94361 10.528402,1.34842 6.67843,2.52207 2.181902,1.5051 6.49156,-8.45811 -2.0192,-1.71757 -4.16493,-5.79595 -4.027883,-9.82012 4.853623,-4.8528 9.82168,4.02717 5.79689,4.16432 1.71784,2.01886 8.45949,-6.49051 -1.50537,-2.18162 -2.52246,-6.67732 -1.34864,-10.52669 5.94455,-3.43061 8.44445,6.43023 4.52058,5.5233 1.13766,2.39399 9.85032,-4.07993 -0.88901,-2.49646 -0.70827,-7.10217 1.42252,-10.51768 6.63015,-1.7763 6.49156,8.39788 2.93834,6.50406 0.47783,2.60641 10.57209,-1.39056 -0.21237,-2.64263 1.15425,-7.04344 4.09718,-9.78998 6.8622,0 4.09718,9.78998 1.15425,7.04344 -0.21237,2.64263 10.5721,1.39056 0.47782,-2.60641 2.93835,-6.50406 6.49155,-8.39788 6.63015,1.7763 1.42253,10.51768 -0.70828,7.10217 -0.88901,2.49646 9.85033,4.07993 1.13765,-2.39399 4.52059,-5.5233 8.44444,-6.43023 5.94455,3.43061 -1.34864,10.52669 -2.52246,6.67732 -1.50537,2.18162 8.45949,6.49051 1.71785,-2.01886 5.79688,-4.16432 9.82168,-4.02717 4.85363,4.8528 -4.02789,9.82012 -4.16493,5.79595 -2.01919,1.71757 6.49155,8.45811 2.1819,-1.5051 6.67843,-2.52207 10.52841,-1.34842 3.4311,5.94361 -6.43128,8.44306 -5.52413,4.51987 -2.39437,1.13749 4.08058,9.84877 2.49686,-0.88889 7.10333,-0.70811 10.51933,1.42224 1.77664,6.6291 -8.39927,6.49051 -6.5051,2.9379 -2.60686,0.47783 1.39084,10.57043 z"
           style="fill:#aaccff;fill-opacity:1;stroke:#000000;stroke-width:0;stroke-miterlimit:4;stroke-opacity:1;stroke-dasharray:none" />
        <path
           sodipodi:type="arc"
           style="fill:#0b1728;fill-opacity:1;stroke:#000000;stroke-width:0;stroke-miterlimit:4;stroke-opacity:1;stroke-dasharray:none"
           id="path2475"
           sodipodi:cx="210.38376"
           sodipodi:cy="616.61945"
           sodipodi:rx="13.879483"
           sodipodi:ry="13.879483"
           d="m 224.26324,616.61945 c 0,7.66542 -6.21405,13.87948 -13.87948,13.87948 -7.66543,0 -13.87948,-6.21406 -13.87948,-13.87948 0,-7.66543 6.21405,-13.87949 13.87948,-13.87949 7.66543,0 13.87948,6.21406 13.87948,13.87949 z"
           transform="matrix(3.0203684,0,0,3.0198847,-447.61174,-1419.7271)" />
      </g>
    </g>
  </g>
</svg>
